inDegrees=no
num_controls=7
num_derivatives=13
num_iterations=156
num_multipliers=7
num_parameters=0
num_slacks=7
num_states=26
objective=5.904747
objective_accelerations=0.749463
objective_balance=0.017388
objective_effort=0.517325
objective_height=4.593638
objective_ligament=0.026933
solver_duration=1375.220546
status=Solve_Succeeded
success=true
DataType=double
version=3
OpenSimVersion=4.4-2022-07-23-0e9fedc
endheader
time	/jointset/ground_pelvis/pelvis_tilt/value	/jointset/ground_pelvis/pelvis_tx/value	/jointset/ground_pelvis/pelvis_ty/value	/jointset/hip_r/hip_flexion_r/value	/jointset/hip_r/hip_adduction_r/value	/jointset/hip_r/hip_rotation_r/value	/jointset/back/lumbar_extension/value	/jointset/patellofemoral_r/patellar_flexion_r/value	/jointset/knee_r/knee_flexion_r/value	/jointset/knee_r/knee_adduction_r/value	/jointset/knee_r/knee_rotation_r/value	/jointset/ankle_r/ankle_angle_r/value	/jointset/subtalar_r/subtalar_angle_r/value	/jointset/ground_pelvis/pelvis_tilt/speed	/jointset/ground_pelvis/pelvis_tx/speed	/jointset/ground_pelvis/pelvis_ty/speed	/jointset/hip_r/hip_flexion_r/speed	/jointset/hip_r/hip_adduction_r/speed	/jointset/hip_r/hip_rotation_r/speed	/jointset/back/lumbar_extension/speed	/jointset/patellofemoral_r/patellar_flexion_r/speed	/jointset/knee_r/knee_flexion_r/speed	/jointset/knee_r/knee_adduction_r/speed	/jointset/knee_r/knee_rotation_r/speed	/jointset/ankle_r/ankle_angle_r/speed	/jointset/subtalar_r/subtalar_angle_r/speed	/forceset/tau_hip_flexion_r	/forceset/tau_hip_adduction_r	/forceset/tau_hip_rotation_r	/forceset/tau_knee_flexion_r	/forceset/tau_ankle_angle_r	/forceset/tau_subtalar_angle_r	/forceset/tau_lumbar_extension	lambda_cid13_p0	lambda_cid14_p0	lambda_cid14_p1	lambda_cid14_p2	lambda_cid14_p3	lambda_cid14_p4	lambda_cid14_p5	/jointset/ground_pelvis/pelvis_tilt/accel	/jointset/ground_pelvis/pelvis_tx/accel	/jointset/ground_pelvis/pelvis_ty/accel	/jointset/hip_r/hip_flexion_r/accel	/jointset/hip_r/hip_adduction_r/accel	/jointset/hip_r/hip_rotation_r/accel	/jointset/back/lumbar_extension/accel	/jointset/patellofemoral_r/patellar_flexion_r/accel	/jointset/knee_r/knee_flexion_r/accel	/jointset/knee_r/knee_adduction_r/accel	/jointset/knee_r/knee_rotation_r/accel	/jointset/ankle_r/ankle_angle_r/accel	/jointset/subtalar_r/subtalar_angle_r/accel	gamma_cid13_p0	gamma_cid14_p0	gamma_cid14_p1	gamma_cid14_p2	gamma_cid14_p3	gamma_cid14_p4	gamma_cid14_p5
0	-0.008423929694892007	0.1324240203735077	0.9330207913799157	0.1934208783645156	-0.2322963418814844	-0.2331884367744999	-0.2903791543005566	0.2311793314021618	0.2311793314021609	0.1421805856262489	0.1675736745737185	0.08934340440958972	0.05864486658132801	0	0	0	0	0	0	0	0	0	0	0	0	0	0.115445502666316	-0.08129086953935681	0.005397014432247708	-0.2497185205545484	0.1198029700430279	-0.08624593178729124	-0.03658843352538598	-29.78488348273216	-7.367402793175013	-33.62473065008091	-0.06775661245041961	4.039210818475314	-604.7481914190554	52.24624135643639	-2.40637792961504	-2.085661496569382	-0.9650938338814955	11.43996179459046	-0.08325614874086146	2.571166741273193	-6.635084681691723	11.30303909985513	11.30303909984873	-2.669034651598132	0.503380032834811	2.963338669304208	0.7085619333562887	5.418687092914393e-08	2.794751939200927e-08	-4.054566697326228e-07	2.651768786849625e-07	1.982403503421758e-08	1.757486599621426e-07	-3.353403256536895e-07
0.01	-0.008537225453477185	0.1323211231432437	0.9329738853840018	0.1939783139280847	-0.2322984201782965	-0.2330590355240993	-0.290712755595105	0.2317340067327171	0.2317340067326958	0.1420455812518249	0.1675939975653701	0.08948938785048736	0.05868223509838602	-0.02256221865426595	-0.02046632612793736	-0.009356091852428942	0.1109633773962682	-0.0004256828205992279	0.02577839799316928	-0.06626289587726396	0.1104317879344655	0.1104317879344594	-0.02683977599699182	0.004022550147865281	0.02908262066701588	0.00743116007323847	0.110691148113331	-0.08493136421941803	0.005870541724953394	-0.2453147847209857	0.1135923615485152	-0.08063296120022846	-0.03230804541782602	-29.79077711792301	-9.130429903443781	-31.34875924508049	-0.598463716035345	4.196627756919051	-606.4012611470464	56.53220915123056	-2.166606073595965	-2.010146217415574	-0.9170656116253528	10.84596566236802	-0.02374235131247232	2.565954592195231	-6.553287585813218	10.8377460765181	10.8377460765211	-2.66732423814437	0.3454390444008469	2.863621407119749	0.7539791070334757	7.818078334005775e-08	1.823151253409325e-08	-5.537444947377394e-07	3.466194149763978e-07	4.594271919382172e-08	4.580285282381095e-08	-4.482282699874129e-07
0.02	-0.008873235846657956	0.132016957042398	0.932834178719422	0.1956296712556757	-0.2323050589038376	-0.2326748946410155	-0.2916952649574421	0.2333778994298615	0.2333778994298553	0.1416470040847689	0.1676532953662012	0.0899227770263878	0.05879263242872185	-0.04454292691908231	-0.04025377411632927	-0.0185601337332096	0.2187843528014235	-0.0009120857449575878	0.05094792654059374	-0.1297816135573057	0.2178434733199575	0.2178434733199766	-0.05271455856979644	0.007794961841269928	0.0574811470028117	0.01460576265552286	0.1059367935604883	-0.08857185889935565	0.006344069017664891	-0.2409110488873609	0.1073817530540635	-0.0750199906129957	-0.02802765731019299	-29.80788700429789	-10.80490572014569	-29.07727479723913	-1.105618224473393	4.417263560261316	-606.6175551481191	60.50563147620469	-2.290075851725069	-1.949885868660309	-0.9346838395518365	10.81148139636785	-0.09540016949267827	2.449392852124224	-6.086249042247244	10.69901859006044	10.69901859006026	-2.476035966760705	0.4533523419426855	2.826519803060175	0.6572504351654752	1.021746957509716e-07	8.515505676177236e-09	-7.02032319742856e-07	4.280619512678331e-07	7.206140335342587e-08	-8.41429543145207e-08	-5.611162143211364e-07
0.03	-0.009426743114535212	0.1315182222592342	0.9326028201868649	0.1983442622597602	-0.2323171155392919	-0.2320428506273474	-0.2932991042718797	0.2360808511296915	0.2360808511296918	0.1409951822749038	0.1677496915677479	0.09063640369925414	0.05897312035126656	-0.06607285281283215	-0.05938790533596213	-0.02771466754703373	0.3236257699074098	-0.001513940136801132	0.0753471298369531	-0.1905682413057829	0.3222275988679498	0.3222275988679552	-0.0774551219174528	0.01142913269963078	0.0851025799076392	0.02143745378207646	0.1009377069855425	-0.08473646322760908	0.006772084640606887	-0.2369466228821432	0.1030735949409869	-0.0748788121085095	-0.02376194434471313	-29.83535021111717	-12.16357992896359	-29.24104129757098	-1.09414637937137	4.616895626713737	-606.8032945851419	59.1761255606313	-2.071594283009573	-1.879370653839405	-0.9063197212341921	10.24426320913184	-0.04480371310692589	2.418213229606932	-6.012168437458742	10.23019883863436	10.23019883863248	-2.443933854285758	0.310264747845816	2.708725428172088	0.6879140155379527	1.0848016394652e-07	-9.830028490313745e-10	-7.204224659318279e-07	4.420765714730112e-07	8.398018863519339e-08	-1.935626236046877e-07	-5.753130464014008e-07
0.04	-0.01019297830630846	0.1308313073828291	0.932279820002382	0.2020920257031852	-0.2323356358464671	-0.2311702087484659	-0.2954982696230643	0.2398120619452905	0.2398120619452877	0.1401017813643585	0.1678807925359137	0.09162199877996832	0.05922028229790457	-0.08708851169895382	-0.07788979276459966	-0.0368884641183643	0.4254188406701109	-0.002204820091697045	0.09906749958191376	-0.2488468209066903	0.4234952964745691	0.4234952964745642	-0.1010303786858156	0.01473591516051475	0.1118748285715874	0.02794056747413651	0.09593862041052123	-0.08090106755591188	0.007200100263574538	-0.2329821968769737	0.09876543682787749	-0.0747376336040934	-0.01949623137926571	-29.87171744384262	-13.44186595101947	-29.41003376352412	-1.059793173678615	4.865889408605399	-605.6888524805444	57.56149798704482	-2.187222450199383	-1.823437110461279	-0.9385363910531216	10.2018121277108	-0.1132052821031353	2.31362614184447	-5.584639412733265	10.07573300178583	10.07573300178634	-2.242974650902028	0.3878746624473187	2.656682954884285	0.591534948266773	1.144209219520608e-07	-1.047702687253468e-08	-7.361343094647969e-07	4.547009253671323e-07	9.560619249679934e-08	-3.025590735577791e-07	-5.874750101877795e-07
0.05	-0.01116722746311804	0.1299626385269531	0.9318646716302128	0.2068430627688779	-0.2323616590139415	-0.2300646141608013	-0.2982670045603997	0.2445408839809571	0.244540883980946	0.1389787309969339	0.1680441710781209	0.09287128871458505	0.05953073973972757	-0.1076594218257569	-0.09572652150363391	-0.04616492485748248	0.5242624767446298	-0.00299775118832543	0.1219179143874893	-0.3044781484494474	0.5217642654892621	0.5217642654892504	-0.1234117788208835	0.01787941335909293	0.1378655456970309	0.03412578314063035	0.09036780181243086	-0.07880297566189651	0.007683171410083862	-0.2293587974608974	0.09443718612467035	-0.07263488959770735	-0.01486087542452025	-29.91540123800955	-14.62488207985848	-28.69145675999194	-1.188624228211965	4.836826553337753	-604.7324576217522	57.71434481873094	-1.976729307239082	-1.746153004508501	-0.9258194892215256	9.646729901460892	-0.06204384870296645	2.250819465107674	-5.489076708362792	9.626729143738375	9.626729143737048	-2.210606345749305	0.2686220051636109	2.552635134502828	0.6281835396618072	1.101608155298583e-07	-1.820412211074844e-08	-6.732255665038412e-07	4.433227417188059e-07	9.806885250877224e-08	-3.815889543927496e-07	-5.54106951416926e-07
